<svg width="23" height="24" viewBox="0 0 23 24" fill="none" xmlns="http://www.w3.org/2000/svg">
<path d="M16.1267 17.3438C15.8975 17.0729 15.783 16.7654 15.783 16.4212C15.783 16.0779 15.8975 15.7917 16.1267 15.5625L18.4392 13.25H9.47046C9.11629 13.25 8.81962 13.13 8.58046 12.89C8.34046 12.6508 8.22046 12.3542 8.22046 12C8.22046 11.6458 8.34046 11.3487 8.58046 11.1087C8.81962 10.8696 9.11629 10.75 9.47046 10.75H18.4392L16.1267 8.4375C15.8767 8.1875 15.7517 7.89083 15.7517 7.5475C15.7517 7.20333 15.8767 6.90625 16.1267 6.65625C16.3559 6.40625 16.6425 6.28125 16.9867 6.28125C17.33 6.28125 17.6163 6.39583 17.8455 6.625L22.3455 11.125C22.4705 11.25 22.5592 11.3854 22.6117 11.5312C22.6634 11.6771 22.6892 11.8333 22.6892 12C22.6892 12.1667 22.6634 12.3229 22.6117 12.4688C22.5592 12.6146 22.4705 12.75 22.3455 12.875L17.8455 17.375C17.5746 17.6458 17.278 17.7654 16.9555 17.7337C16.6321 17.7029 16.3559 17.5729 16.1267 17.3438ZM3.22046 23.25C2.53296 23.25 1.94421 23.0054 1.45421 22.5163C0.965042 22.0263 0.720459 21.4375 0.720459 20.75V3.25C0.720459 2.5625 0.965042 1.97375 1.45421 1.48375C1.94421 0.994583 2.53296 0.75 3.22046 0.75H10.7205C11.0746 0.75 11.3717 0.869583 11.6117 1.10875C11.8509 1.34875 11.9705 1.64583 11.9705 2C11.9705 2.35417 11.8509 2.65083 11.6117 2.89C11.3717 3.13 11.0746 3.25 10.7205 3.25H3.22046V20.75H10.7205C11.0746 20.75 11.3717 20.87 11.6117 21.11C11.8509 21.3492 11.9705 21.6458 11.9705 22C11.9705 22.3542 11.8509 22.6508 11.6117 22.89C11.3717 23.13 11.0746 23.25 10.7205 23.25H3.22046Z" fill="black"/>
</svg>
